<mxfile host="app.diagrams.net" modified="2023-05-12T01:32:33.240Z" agent="Mozilla/5.0 (Windows NT 10.0; Win64; x64) AppleWebKit/537.36 (KHTML, like Gecko) Chrome/112.0.0.0 Safari/537.36" etag="OYyTW-sK3FsUDMznTw_n" version="21.2.9" type="google">
  <diagram id="eALotmpUcdXb71cxQQtk" name="Class">
    <mxGraphModel grid="1" page="1" gridSize="10" guides="1" tooltips="1" connect="1" arrows="1" fold="1" pageScale="1" pageWidth="900" pageHeight="1300" math="0" shadow="0">
      <root>
        <mxCell id="0" />
        <mxCell id="1" parent="0" />
        <mxCell id="kDmF-Hpspldv77eTt_ew-1" value="&amp;lt;&amp;lt;boundary&amp;gt;&amp;gt;&lt;br&gt;:&amp;nbsp;RegisterHireInfoUI" style="swimlane;fontStyle=1;align=center;verticalAlign=top;childLayout=stackLayout;horizontal=1;startSize=40;horizontalStack=0;resizeParent=1;resizeParentMax=0;resizeLast=0;collapsible=1;marginBottom=0;whiteSpace=wrap;html=1;" vertex="1" parent="1">
          <mxGeometry x="40" y="40" width="230" height="100" as="geometry" />
        </mxCell>
        <mxCell id="kDmF-Hpspldv77eTt_ew-2" value="" style="line;strokeWidth=1;fillColor=none;align=left;verticalAlign=middle;spacingTop=-1;spacingLeft=3;spacingRight=3;rotatable=0;labelPosition=right;points=[];portConstraint=eastwest;strokeColor=inherit;" vertex="1" parent="kDmF-Hpspldv77eTt_ew-1">
          <mxGeometry y="40" width="230" height="20" as="geometry" />
        </mxCell>
        <mxCell id="kDmF-Hpspldv77eTt_ew-3" value="startInterface()&lt;br&gt;InputHireInfoData()" style="text;strokeColor=none;fillColor=none;align=left;verticalAlign=top;spacingLeft=4;spacingRight=4;overflow=hidden;rotatable=0;points=[[0,0.5],[1,0.5]];portConstraint=eastwest;whiteSpace=wrap;html=1;" vertex="1" parent="kDmF-Hpspldv77eTt_ew-1">
          <mxGeometry y="60" width="230" height="40" as="geometry" />
        </mxCell>
        <mxCell id="3-JZhYWRS73Tm0uZbsiD-2" value="&amp;lt;&amp;lt;control&amp;gt;&amp;gt;&lt;br style=&quot;border-color: var(--border-color);&quot;&gt;:&amp;nbsp;ShowHireInfo" style="swimlane;fontStyle=1;align=center;verticalAlign=top;childLayout=stackLayout;horizontal=1;startSize=40;horizontalStack=0;resizeParent=1;resizeParentMax=0;resizeLast=0;collapsible=1;marginBottom=0;whiteSpace=wrap;html=1;" vertex="1" parent="1">
          <mxGeometry x="310" y="40" width="230" height="90" as="geometry" />
        </mxCell>
        <mxCell id="3-JZhYWRS73Tm0uZbsiD-3" value="" style="line;strokeWidth=1;fillColor=none;align=left;verticalAlign=middle;spacingTop=-1;spacingLeft=3;spacingRight=3;rotatable=0;labelPosition=right;points=[];portConstraint=eastwest;strokeColor=inherit;" vertex="1" parent="3-JZhYWRS73Tm0uZbsiD-2">
          <mxGeometry y="40" width="230" height="20" as="geometry" />
        </mxCell>
        <mxCell id="3-JZhYWRS73Tm0uZbsiD-4" value="sendHireInfoData()" style="text;strokeColor=none;fillColor=none;align=left;verticalAlign=top;spacingLeft=4;spacingRight=4;overflow=hidden;rotatable=0;points=[[0,0.5],[1,0.5]];portConstraint=eastwest;whiteSpace=wrap;html=1;" vertex="1" parent="3-JZhYWRS73Tm0uZbsiD-2">
          <mxGeometry y="60" width="230" height="30" as="geometry" />
        </mxCell>
        <mxCell id="Q3w1870F2dKRw3mI5TbT-1" value="&amp;lt;&amp;lt;boundary&amp;gt;&amp;gt;&lt;br&gt;: ShowHireInfoUI" style="swimlane;fontStyle=1;align=center;verticalAlign=top;childLayout=stackLayout;horizontal=1;startSize=40;horizontalStack=0;resizeParent=1;resizeParentMax=0;resizeLast=0;collapsible=1;marginBottom=0;whiteSpace=wrap;html=1;" vertex="1" parent="1">
          <mxGeometry x="40" y="250" width="230" height="90" as="geometry" />
        </mxCell>
        <mxCell id="Q3w1870F2dKRw3mI5TbT-2" value="" style="line;strokeWidth=1;fillColor=none;align=left;verticalAlign=middle;spacingTop=-1;spacingLeft=3;spacingRight=3;rotatable=0;labelPosition=right;points=[];portConstraint=eastwest;strokeColor=inherit;" vertex="1" parent="Q3w1870F2dKRw3mI5TbT-1">
          <mxGeometry y="40" width="230" height="20" as="geometry" />
        </mxCell>
        <mxCell id="Q3w1870F2dKRw3mI5TbT-3" value="startInterface()" style="text;strokeColor=none;fillColor=none;align=left;verticalAlign=top;spacingLeft=4;spacingRight=4;overflow=hidden;rotatable=0;points=[[0,0.5],[1,0.5]];portConstraint=eastwest;whiteSpace=wrap;html=1;" vertex="1" parent="Q3w1870F2dKRw3mI5TbT-1">
          <mxGeometry y="60" width="230" height="30" as="geometry" />
        </mxCell>
        <mxCell id="YVO0VVKDCRgYsHPqzTSh-1" value="&amp;lt;&amp;lt;boundary&amp;gt;&amp;gt;&lt;br&gt;: DeleteHireInfoUI" style="swimlane;fontStyle=1;align=center;verticalAlign=top;childLayout=stackLayout;horizontal=1;startSize=40;horizontalStack=0;resizeParent=1;resizeParentMax=0;resizeLast=0;collapsible=1;marginBottom=0;whiteSpace=wrap;html=1;" vertex="1" parent="1">
          <mxGeometry x="40" y="670" width="230" height="100" as="geometry" />
        </mxCell>
        <mxCell id="YVO0VVKDCRgYsHPqzTSh-2" value="" style="line;strokeWidth=1;fillColor=none;align=left;verticalAlign=middle;spacingTop=-1;spacingLeft=3;spacingRight=3;rotatable=0;labelPosition=right;points=[];portConstraint=eastwest;strokeColor=inherit;" vertex="1" parent="YVO0VVKDCRgYsHPqzTSh-1">
          <mxGeometry y="40" width="230" height="20" as="geometry" />
        </mxCell>
        <mxCell id="YVO0VVKDCRgYsHPqzTSh-3" value="startInterface()&lt;br&gt;DeleteHireInfo()" style="text;strokeColor=none;fillColor=none;align=left;verticalAlign=top;spacingLeft=4;spacingRight=4;overflow=hidden;rotatable=0;points=[[0,0.5],[1,0.5]];portConstraint=eastwest;whiteSpace=wrap;html=1;" vertex="1" parent="YVO0VVKDCRgYsHPqzTSh-1">
          <mxGeometry y="60" width="230" height="40" as="geometry" />
        </mxCell>
        <mxCell id="YVO0VVKDCRgYsHPqzTSh-4" value="&amp;lt;&amp;lt;boundary&amp;gt;&amp;gt;&lt;br&gt;:&amp;nbsp;DeleteHireInfo" style="swimlane;fontStyle=1;align=center;verticalAlign=top;childLayout=stackLayout;horizontal=1;startSize=40;horizontalStack=0;resizeParent=1;resizeParentMax=0;resizeLast=0;collapsible=1;marginBottom=0;whiteSpace=wrap;html=1;" vertex="1" parent="1">
          <mxGeometry x="310" y="670" width="230" height="90" as="geometry" />
        </mxCell>
        <mxCell id="YVO0VVKDCRgYsHPqzTSh-5" value="" style="line;strokeWidth=1;fillColor=none;align=left;verticalAlign=middle;spacingTop=-1;spacingLeft=3;spacingRight=3;rotatable=0;labelPosition=right;points=[];portConstraint=eastwest;strokeColor=inherit;" vertex="1" parent="YVO0VVKDCRgYsHPqzTSh-4">
          <mxGeometry y="40" width="230" height="20" as="geometry" />
        </mxCell>
        <mxCell id="YVO0VVKDCRgYsHPqzTSh-6" value="sendDeleteHireInfo()" style="text;strokeColor=none;fillColor=none;align=left;verticalAlign=top;spacingLeft=4;spacingRight=4;overflow=hidden;rotatable=0;points=[[0,0.5],[1,0.5]];portConstraint=eastwest;whiteSpace=wrap;html=1;" vertex="1" parent="YVO0VVKDCRgYsHPqzTSh-4">
          <mxGeometry y="60" width="230" height="30" as="geometry" />
        </mxCell>
        <mxCell id="EzFcwholfgZ4JILVqK_i-1" value="&amp;lt;&amp;lt;boundary&amp;gt;&amp;gt;&lt;br&gt;:UpdateHireInfoUI" style="swimlane;fontStyle=1;align=center;verticalAlign=top;childLayout=stackLayout;horizontal=1;startSize=40;horizontalStack=0;resizeParent=1;resizeParentMax=0;resizeLast=0;collapsible=1;marginBottom=0;whiteSpace=wrap;html=1;" vertex="1" parent="1">
          <mxGeometry x="40" y="460" width="230" height="100" as="geometry" />
        </mxCell>
        <mxCell id="EzFcwholfgZ4JILVqK_i-2" value="" style="line;strokeWidth=1;fillColor=none;align=left;verticalAlign=middle;spacingTop=-1;spacingLeft=3;spacingRight=3;rotatable=0;labelPosition=right;points=[];portConstraint=eastwest;strokeColor=inherit;" vertex="1" parent="EzFcwholfgZ4JILVqK_i-1">
          <mxGeometry y="40" width="230" height="20" as="geometry" />
        </mxCell>
        <mxCell id="EzFcwholfgZ4JILVqK_i-3" value="startInterface()&lt;br&gt;inputUpdateHireInfo()" style="text;strokeColor=none;fillColor=none;align=left;verticalAlign=top;spacingLeft=4;spacingRight=4;overflow=hidden;rotatable=0;points=[[0,0.5],[1,0.5]];portConstraint=eastwest;whiteSpace=wrap;html=1;" vertex="1" parent="EzFcwholfgZ4JILVqK_i-1">
          <mxGeometry y="60" width="230" height="40" as="geometry" />
        </mxCell>
        <mxCell id="EzFcwholfgZ4JILVqK_i-4" value="&amp;lt;&amp;lt;control&amp;gt;&amp;gt;&lt;br style=&quot;border-color: var(--border-color);&quot;&gt;: UpdateHireInfo" style="swimlane;fontStyle=1;align=center;verticalAlign=top;childLayout=stackLayout;horizontal=1;startSize=40;horizontalStack=0;resizeParent=1;resizeParentMax=0;resizeLast=0;collapsible=1;marginBottom=0;whiteSpace=wrap;html=1;" vertex="1" parent="1">
          <mxGeometry x="310" y="460" width="230" height="90" as="geometry" />
        </mxCell>
        <mxCell id="EzFcwholfgZ4JILVqK_i-5" value="" style="line;strokeWidth=1;fillColor=none;align=left;verticalAlign=middle;spacingTop=-1;spacingLeft=3;spacingRight=3;rotatable=0;labelPosition=right;points=[];portConstraint=eastwest;strokeColor=inherit;" vertex="1" parent="EzFcwholfgZ4JILVqK_i-4">
          <mxGeometry y="40" width="230" height="20" as="geometry" />
        </mxCell>
        <mxCell id="EzFcwholfgZ4JILVqK_i-6" value="sendUpdateHireInfo()" style="text;strokeColor=none;fillColor=none;align=left;verticalAlign=top;spacingLeft=4;spacingRight=4;overflow=hidden;rotatable=0;points=[[0,0.5],[1,0.5]];portConstraint=eastwest;whiteSpace=wrap;html=1;" vertex="1" parent="EzFcwholfgZ4JILVqK_i-4">
          <mxGeometry y="60" width="230" height="30" as="geometry" />
        </mxCell>
        <mxCell id="IsQ5mraXpVtjKsYl3jm2-1" value="&amp;lt;&amp;lt;entity&amp;gt;&amp;gt;&lt;br style=&quot;border-color: var(--border-color);&quot;&gt;: HireInfo" style="swimlane;fontStyle=1;align=center;verticalAlign=top;childLayout=stackLayout;horizontal=1;startSize=40;horizontalStack=0;resizeParent=1;resizeParentMax=0;resizeLast=0;collapsible=1;marginBottom=0;whiteSpace=wrap;html=1;" vertex="1" parent="1">
          <mxGeometry x="570" y="460" width="230" height="120" as="geometry" />
        </mxCell>
        <mxCell id="IsQ5mraXpVtjKsYl3jm2-3" value="Task&lt;br&gt;HireNum&lt;br&gt;CloseDate&lt;br&gt;hireinfolistpointer" style="text;strokeColor=default;fillColor=none;align=left;verticalAlign=top;spacingLeft=4;spacingRight=4;overflow=hidden;rotatable=0;points=[[0,0.5],[1,0.5]];portConstraint=eastwest;whiteSpace=wrap;html=1;" vertex="1" parent="IsQ5mraXpVtjKsYl3jm2-1">
          <mxGeometry y="40" width="230" height="80" as="geometry" />
        </mxCell>
        <mxCell id="oX9DkSlFx_TzjabnUO2F-3" value="getHireInfo()&lt;br&gt;update()" style="text;strokeColor=default;fillColor=none;align=left;verticalAlign=top;spacingLeft=4;spacingRight=4;overflow=hidden;rotatable=0;points=[[0,0.5],[1,0.5]];portConstraint=eastwest;whiteSpace=wrap;html=1;" vertex="1" parent="1">
          <mxGeometry x="570" y="580" width="230" height="60" as="geometry" />
        </mxCell>
        <mxCell id="5aZtNPiqjWfiLl0IAE5G-2" value="&amp;lt;&amp;lt;entity&amp;gt;&amp;gt;&lt;br style=&quot;border-color: var(--border-color);&quot;&gt;: HireInfo" style="swimlane;fontStyle=1;align=center;verticalAlign=top;childLayout=stackLayout;horizontal=1;startSize=40;horizontalStack=0;resizeParent=1;resizeParentMax=0;resizeLast=0;collapsible=1;marginBottom=0;whiteSpace=wrap;html=1;" vertex="1" parent="1">
          <mxGeometry x="570" y="40" width="230" height="120" as="geometry" />
        </mxCell>
        <mxCell id="5aZtNPiqjWfiLl0IAE5G-3" value="Task&lt;br&gt;HireNum&lt;br&gt;CloseDate&lt;br&gt;hireinfolistpointer" style="text;strokeColor=default;fillColor=none;align=left;verticalAlign=top;spacingLeft=4;spacingRight=4;overflow=hidden;rotatable=0;points=[[0,0.5],[1,0.5]];portConstraint=eastwest;whiteSpace=wrap;html=1;" vertex="1" parent="5aZtNPiqjWfiLl0IAE5G-2">
          <mxGeometry y="40" width="230" height="80" as="geometry" />
        </mxCell>
        <mxCell id="5aZtNPiqjWfiLl0IAE5G-4" value="HireInfo()" style="text;strokeColor=default;fillColor=none;align=left;verticalAlign=top;spacingLeft=4;spacingRight=4;overflow=hidden;rotatable=0;points=[[0,0.5],[1,0.5]];portConstraint=eastwest;whiteSpace=wrap;html=1;" vertex="1" parent="1">
          <mxGeometry x="570" y="160" width="230" height="60" as="geometry" />
        </mxCell>
        <mxCell id="pcpPYOIH_HQE1LhaKmYd-1" value="&amp;lt;&amp;lt;entity&amp;gt;&amp;gt;&lt;br style=&quot;border-color: var(--border-color);&quot;&gt;: HireInfo" style="swimlane;fontStyle=1;align=center;verticalAlign=top;childLayout=stackLayout;horizontal=1;startSize=40;horizontalStack=0;resizeParent=1;resizeParentMax=0;resizeLast=0;collapsible=1;marginBottom=0;whiteSpace=wrap;html=1;" vertex="1" parent="1">
          <mxGeometry x="570" y="235" width="230" height="120" as="geometry" />
        </mxCell>
        <mxCell id="pcpPYOIH_HQE1LhaKmYd-2" value="Task&lt;br&gt;HireNum&lt;br&gt;CloseDate&lt;br&gt;hireinfolistpointer" style="text;strokeColor=default;fillColor=none;align=left;verticalAlign=top;spacingLeft=4;spacingRight=4;overflow=hidden;rotatable=0;points=[[0,0.5],[1,0.5]];portConstraint=eastwest;whiteSpace=wrap;html=1;" vertex="1" parent="pcpPYOIH_HQE1LhaKmYd-1">
          <mxGeometry y="40" width="230" height="80" as="geometry" />
        </mxCell>
        <mxCell id="pcpPYOIH_HQE1LhaKmYd-3" value="getHireInfo()" style="text;strokeColor=default;fillColor=none;align=left;verticalAlign=top;spacingLeft=4;spacingRight=4;overflow=hidden;rotatable=0;points=[[0,0.5],[1,0.5]];portConstraint=eastwest;whiteSpace=wrap;html=1;" vertex="1" parent="1">
          <mxGeometry x="570" y="355" width="230" height="60" as="geometry" />
        </mxCell>
        <mxCell id="b-93uMGF-Rq3lxpa7xJu-1" value="&amp;lt;&amp;lt;entity&amp;gt;&amp;gt;&lt;br style=&quot;border-color: var(--border-color);&quot;&gt;: HireInfo" style="swimlane;fontStyle=1;align=center;verticalAlign=top;childLayout=stackLayout;horizontal=1;startSize=40;horizontalStack=0;resizeParent=1;resizeParentMax=0;resizeLast=0;collapsible=1;marginBottom=0;whiteSpace=wrap;html=1;" vertex="1" parent="1">
          <mxGeometry x="570" y="670" width="230" height="120" as="geometry" />
        </mxCell>
        <mxCell id="b-93uMGF-Rq3lxpa7xJu-2" value="Task&lt;br&gt;HireNum&lt;br&gt;CloseDate&lt;br&gt;hireinfolistpointer" style="text;strokeColor=default;fillColor=none;align=left;verticalAlign=top;spacingLeft=4;spacingRight=4;overflow=hidden;rotatable=0;points=[[0,0.5],[1,0.5]];portConstraint=eastwest;whiteSpace=wrap;html=1;" vertex="1" parent="b-93uMGF-Rq3lxpa7xJu-1">
          <mxGeometry y="40" width="230" height="80" as="geometry" />
        </mxCell>
        <mxCell id="b-93uMGF-Rq3lxpa7xJu-3" value="getHireInfo()&lt;br&gt;~HireInfo()" style="text;strokeColor=default;fillColor=none;align=left;verticalAlign=top;spacingLeft=4;spacingRight=4;overflow=hidden;rotatable=0;points=[[0,0.5],[1,0.5]];portConstraint=eastwest;whiteSpace=wrap;html=1;" vertex="1" parent="1">
          <mxGeometry x="570" y="790" width="230" height="60" as="geometry" />
        </mxCell>
        <mxCell id="62CtInTT40i0BWKfJRz8-1" value="&amp;lt;&amp;lt;boundary&amp;gt;&amp;gt;&lt;br&gt;:&amp;nbsp;CloseHireInfoUI" style="swimlane;fontStyle=1;align=center;verticalAlign=top;childLayout=stackLayout;horizontal=1;startSize=40;horizontalStack=0;resizeParent=1;resizeParentMax=0;resizeLast=0;collapsible=1;marginBottom=0;whiteSpace=wrap;html=1;" vertex="1" parent="1">
          <mxGeometry x="40" y="890" width="230" height="100" as="geometry" />
        </mxCell>
        <mxCell id="62CtInTT40i0BWKfJRz8-2" value="" style="line;strokeWidth=1;fillColor=none;align=left;verticalAlign=middle;spacingTop=-1;spacingLeft=3;spacingRight=3;rotatable=0;labelPosition=right;points=[];portConstraint=eastwest;strokeColor=inherit;" vertex="1" parent="62CtInTT40i0BWKfJRz8-1">
          <mxGeometry y="40" width="230" height="20" as="geometry" />
        </mxCell>
        <mxCell id="62CtInTT40i0BWKfJRz8-3" value="startInterface()&lt;br&gt;closeHireInfo()" style="text;strokeColor=none;fillColor=none;align=left;verticalAlign=top;spacingLeft=4;spacingRight=4;overflow=hidden;rotatable=0;points=[[0,0.5],[1,0.5]];portConstraint=eastwest;whiteSpace=wrap;html=1;" vertex="1" parent="62CtInTT40i0BWKfJRz8-1">
          <mxGeometry y="60" width="230" height="40" as="geometry" />
        </mxCell>
        <mxCell id="62CtInTT40i0BWKfJRz8-4" value="&amp;lt;&amp;lt;control&amp;gt;&amp;gt;&lt;br style=&quot;border-color: var(--border-color);&quot;&gt;:&amp;nbsp;CloseHireInfo" style="swimlane;fontStyle=1;align=center;verticalAlign=top;childLayout=stackLayout;horizontal=1;startSize=40;horizontalStack=0;resizeParent=1;resizeParentMax=0;resizeLast=0;collapsible=1;marginBottom=0;whiteSpace=wrap;html=1;" vertex="1" parent="1">
          <mxGeometry x="310" y="890" width="230" height="90" as="geometry" />
        </mxCell>
        <mxCell id="62CtInTT40i0BWKfJRz8-5" value="" style="line;strokeWidth=1;fillColor=none;align=left;verticalAlign=middle;spacingTop=-1;spacingLeft=3;spacingRight=3;rotatable=0;labelPosition=right;points=[];portConstraint=eastwest;strokeColor=inherit;" vertex="1" parent="62CtInTT40i0BWKfJRz8-4">
          <mxGeometry y="40" width="230" height="20" as="geometry" />
        </mxCell>
        <mxCell id="62CtInTT40i0BWKfJRz8-6" value="sendCloseHireInfo()" style="text;strokeColor=none;fillColor=none;align=left;verticalAlign=top;spacingLeft=4;spacingRight=4;overflow=hidden;rotatable=0;points=[[0,0.5],[1,0.5]];portConstraint=eastwest;whiteSpace=wrap;html=1;" vertex="1" parent="62CtInTT40i0BWKfJRz8-4">
          <mxGeometry y="60" width="230" height="30" as="geometry" />
        </mxCell>
        <mxCell id="62CtInTT40i0BWKfJRz8-7" value="&amp;lt;&amp;lt;boundary&amp;gt;&amp;gt;&lt;br&gt;: showClosedHireInfoUI" style="swimlane;fontStyle=1;align=center;verticalAlign=top;childLayout=stackLayout;horizontal=1;startSize=40;horizontalStack=0;resizeParent=1;resizeParentMax=0;resizeLast=0;collapsible=1;marginBottom=0;whiteSpace=wrap;html=1;" vertex="1" parent="1">
          <mxGeometry x="40" y="1090" width="230" height="90" as="geometry" />
        </mxCell>
        <mxCell id="62CtInTT40i0BWKfJRz8-8" value="" style="line;strokeWidth=1;fillColor=none;align=left;verticalAlign=middle;spacingTop=-1;spacingLeft=3;spacingRight=3;rotatable=0;labelPosition=right;points=[];portConstraint=eastwest;strokeColor=inherit;" vertex="1" parent="62CtInTT40i0BWKfJRz8-7">
          <mxGeometry y="40" width="230" height="20" as="geometry" />
        </mxCell>
        <mxCell id="62CtInTT40i0BWKfJRz8-9" value="startInterface()" style="text;strokeColor=none;fillColor=none;align=left;verticalAlign=top;spacingLeft=4;spacingRight=4;overflow=hidden;rotatable=0;points=[[0,0.5],[1,0.5]];portConstraint=eastwest;whiteSpace=wrap;html=1;" vertex="1" parent="62CtInTT40i0BWKfJRz8-7">
          <mxGeometry y="60" width="230" height="30" as="geometry" />
        </mxCell>
        <mxCell id="62CtInTT40i0BWKfJRz8-10" value="&amp;lt;&amp;lt;control&amp;gt;&amp;gt;&lt;br&gt;: ShowClosedHireInfo" style="swimlane;fontStyle=1;align=center;verticalAlign=top;childLayout=stackLayout;horizontal=1;startSize=40;horizontalStack=0;resizeParent=1;resizeParentMax=0;resizeLast=0;collapsible=1;marginBottom=0;whiteSpace=wrap;html=1;" vertex="1" parent="1">
          <mxGeometry x="310" y="1090" width="230" height="90" as="geometry" />
        </mxCell>
        <mxCell id="62CtInTT40i0BWKfJRz8-11" value="" style="line;strokeWidth=1;fillColor=none;align=left;verticalAlign=middle;spacingTop=-1;spacingLeft=3;spacingRight=3;rotatable=0;labelPosition=right;points=[];portConstraint=eastwest;strokeColor=inherit;" vertex="1" parent="62CtInTT40i0BWKfJRz8-10">
          <mxGeometry y="40" width="230" height="20" as="geometry" />
        </mxCell>
        <mxCell id="62CtInTT40i0BWKfJRz8-12" value="sortByClosedDate()" style="text;strokeColor=none;fillColor=none;align=left;verticalAlign=top;spacingLeft=4;spacingRight=4;overflow=hidden;rotatable=0;points=[[0,0.5],[1,0.5]];portConstraint=eastwest;whiteSpace=wrap;html=1;" vertex="1" parent="62CtInTT40i0BWKfJRz8-10">
          <mxGeometry y="60" width="230" height="30" as="geometry" />
        </mxCell>
        <mxCell id="62CtInTT40i0BWKfJRz8-13" value="&amp;lt;&amp;lt;entity&amp;gt;&amp;gt;&lt;br style=&quot;border-color: var(--border-color);&quot;&gt;: HireInfo" style="swimlane;fontStyle=1;align=center;verticalAlign=top;childLayout=stackLayout;horizontal=1;startSize=40;horizontalStack=0;resizeParent=1;resizeParentMax=0;resizeLast=0;collapsible=1;marginBottom=0;whiteSpace=wrap;html=1;" vertex="1" parent="1">
          <mxGeometry x="570" y="890" width="230" height="120" as="geometry" />
        </mxCell>
        <mxCell id="62CtInTT40i0BWKfJRz8-14" value="Task&lt;br&gt;HireNum&lt;br&gt;CloseDate&lt;br&gt;hireinfolistpointer" style="text;strokeColor=default;fillColor=none;align=left;verticalAlign=top;spacingLeft=4;spacingRight=4;overflow=hidden;rotatable=0;points=[[0,0.5],[1,0.5]];portConstraint=eastwest;whiteSpace=wrap;html=1;" vertex="1" parent="62CtInTT40i0BWKfJRz8-13">
          <mxGeometry y="40" width="230" height="80" as="geometry" />
        </mxCell>
        <mxCell id="62CtInTT40i0BWKfJRz8-15" value="getHireInfo()&lt;br&gt;setClose()" style="text;strokeColor=default;fillColor=none;align=left;verticalAlign=top;spacingLeft=4;spacingRight=4;overflow=hidden;rotatable=0;points=[[0,0.5],[1,0.5]];portConstraint=eastwest;whiteSpace=wrap;html=1;" vertex="1" parent="1">
          <mxGeometry x="570" y="1010" width="230" height="60" as="geometry" />
        </mxCell>
        <mxCell id="62CtInTT40i0BWKfJRz8-16" value="&amp;lt;&amp;lt;entity&amp;gt;&amp;gt;&lt;br style=&quot;border-color: var(--border-color);&quot;&gt;: HireInfo" style="swimlane;fontStyle=1;align=center;verticalAlign=top;childLayout=stackLayout;horizontal=1;startSize=40;horizontalStack=0;resizeParent=1;resizeParentMax=0;resizeLast=0;collapsible=1;marginBottom=0;whiteSpace=wrap;html=1;" vertex="1" parent="1">
          <mxGeometry x="570" y="1090" width="230" height="120" as="geometry" />
        </mxCell>
        <mxCell id="62CtInTT40i0BWKfJRz8-17" value="Task&lt;br&gt;HireNum&lt;br&gt;CloseDate&lt;br&gt;hireinfolistpointer" style="text;strokeColor=default;fillColor=none;align=left;verticalAlign=top;spacingLeft=4;spacingRight=4;overflow=hidden;rotatable=0;points=[[0,0.5],[1,0.5]];portConstraint=eastwest;whiteSpace=wrap;html=1;" vertex="1" parent="62CtInTT40i0BWKfJRz8-16">
          <mxGeometry y="40" width="230" height="80" as="geometry" />
        </mxCell>
        <mxCell id="62CtInTT40i0BWKfJRz8-18" value="getHireInfo()" style="text;strokeColor=default;fillColor=none;align=left;verticalAlign=top;spacingLeft=4;spacingRight=4;overflow=hidden;rotatable=0;points=[[0,0.5],[1,0.5]];portConstraint=eastwest;whiteSpace=wrap;html=1;" vertex="1" parent="1">
          <mxGeometry x="570" y="1210" width="230" height="60" as="geometry" />
        </mxCell>
      </root>
    </mxGraphModel>
  </diagram>
</mxfile>
